<?xml version="1.0" standalone="no"?>
<!DOCTYPE svg PUBLIC "-//W3C//DTD SVG 20010904//EN"
 "http://www.w3.org/TR/2001/REC-SVG-20010904/DTD/svg10.dtd">
<svg version="1.0" xmlns="http://www.w3.org/2000/svg"
 width="1024.000000pt" height="1024.000000pt" viewBox="0 0 1024.000000 1024.000000"
 preserveAspectRatio="xMidYMid meet">

<g transform="translate(0.000000,1024.000000) scale(0.100000,-0.100000)"
fill="#000000" stroke="none">
<path d="M3940 8105 c-339 -47 -674 -184 -935 -384 -82 -62 -244 -220 -321
-313 -213 -254 -370 -581 -434 -903 -28 -137 -38 -443 -21 -591 44 -374 177
-706 404 -1009 84 -113 305 -328 417 -407 200 -142 431 -248 669 -308 l44 -12
-529 -529 -529 -529 563 -563 562 -562 1741 1740 c957 957 1975 1978 2261
2268 l522 528 -365 365 c-200 201 -453 451 -562 557 l-199 191 -541 -543
c-442 -444 -543 -540 -548 -525 -4 11 -26 79 -49 151 -205 650 -753 1165
-1416 1334 -229 58 -510 75 -734 44z m560 -788 c237 -64 437 -180 597 -349
177 -188 275 -381 317 -627 27 -160 14 -350 -35 -517 l-21 -71 -397 -396
c-445 -444 -412 -419 -605 -452 -428 -72 -898 132 -1160 504 -77 108 -161 287
-192 407 -32 121 -43 345 -25 475 41 288 144 493 350 700 192 193 401 302 661
344 137 23 390 14 510 -18z"/>
</g>
</svg>
