<svg width="32" height="32" viewBox="0 0 32 32" fill="none" xmlns="http://www.w3.org/2000/svg">
  <!-- Fond circulaire avec dégradé -->
  <defs>
    <linearGradient id="gradient" x1="0%" y1="0%" x2="100%" y2="100%">
      <stop offset="0%" style="stop-color:#F59E0B;stop-opacity:1" />
      <stop offset="100%" style="stop-color:#D97706;stop-opacity:1" />
    </linearGradient>
  </defs>
  
  <!-- Cercle de fond -->
  <circle cx="16" cy="16" r="15" fill="url(#gradient)" stroke="#92400E" stroke-width="1"/>
  
  <!-- Livre/journal stylisé -->
  <path d="M8 12C8 10.8954 8.89543 10 10 10H22C23.1046 10 24 10.8954 24 12V20C24 21.1046 23.1046 22 22 22H10C8.89543 22 8 21.1046 8 20V12Z" fill="white" opacity="0.9"/>
  
  <!-- Pages du livre -->
  <path d="M9 13H23V19H9V13Z" fill="white"/>
  
  <!-- Lignes de texte -->
  <rect x="11" y="14" width="8" height="1" fill="#F59E0B" rx="0.5"/>
  <rect x="11" y="16" width="6" height="1" fill="#F59E0B" rx="0.5"/>
  <rect x="11" y="18" width="7" height="1" fill="#F59E0B" rx="0.5"/>
  
  <!-- Reliure du livre -->
  <rect x="19" y="13" width="1" height="6" fill="#D97706"/>
</svg> 